<?xml version="1.0" encoding="UTF-8"?>
<svg id="Objs" xmlns="http://www.w3.org/2000/svg" viewBox="0 0 3223.74 1107.41">
  <defs>
    <style>
      .cls-1 {
        fill: #4300df;
      }

      .cls-2 {
        fill: #c5fffd;
      }

      .cls-3 {
        fill: #c89efc;
      }

      .cls-3, .cls-4 {
        stroke: #4300df;
        stroke-linecap: round;
        stroke-linejoin: round;
        stroke-width: 18px;
      }

      .cls-4 {
        fill: none;
      }

      .cls-5 {
        font-family: ExoRoman-Bold, Exo;
        font-size: 480.22px;
        font-variation-settings: 'wght' 700;
        font-weight: 700;
      }
    </style>
  </defs>
  <g>
    <path class="cls-3" d="M693.65,231.54v-.04c-1.6.37-3.16.74-4.75,1.11-1.59.36-3.15.7-4.75,1.07v.04c-317.98,74.84-439.67,201.52-306.41,543.79,117.82,261.85,305.04,75.05,437.29,40.1,134.27-26.18,384.18,60.36,376.11-226.66-29.22-366.14-178.97-430.56-497.5-359.41Z"/>
    <line class="cls-4" x1="1065.97" y1="388.95" x2="1153.14" y2="425.21"/>
    <line class="cls-4" x1="474.39" y1="527.26" x2="336.91" y2="605.39"/>
    <path class="cls-1" d="M733.64,277.81c-192.94,44.25-294.74,108.31-253.4,278.61,41.34,170.31,336.19,82.33,336.19,82.33,0,0,303.72-49.31,266.71-220.61-37.01-171.3-156.55-184.59-349.49-140.33Z"/>
    <path class="cls-2" d="M831.97,498.01c2.95,12.61,19.27,15.73,27.23,5.51,10.23-13.13,24.86-22.95,42.35-26.96,19.42-4.45,38.8-.93,54.73,8.42,11.22,6.59,24.87-3.11,22.8-15.96-.43-2.66-1.01-5.34-1.74-8-10.26-37.48-48.22-61.13-86.38-53.81-41.96,8.04-68.53,49.18-59.06,90.46.03.11.05.23.08.34Z"/>
    <path class="cls-2" d="M592.38,544.37c2.95,12.61,19.27,15.73,27.23,5.51,10.23-13.13,24.86-22.95,42.35-26.96,19.42-4.45,38.8-.93,54.73,8.42,11.22,6.59,24.87-3.11,22.8-15.96-.43-2.66-1.01-5.34-1.74-8-10.26-37.48-48.22-61.13-86.38-53.81-41.96,8.04-68.53,49.18-59.06,90.46.03.11.05.23.08.34Z"/>
    <path class="cls-1" d="M991.44,879.18c2.39,13.71-16.63,23.61-26.39,28.99-53.64,26.6-121.95,39.3-181.63,39.55-13.88-.43-43.44-.91-51.24-14.16-3.26-5.4-1.13-12.45,2.83-16.64,16.63-17.97,63.24-30.01,87.3-36.09,25.95-6.38,162.37-35.08,169.13-1.64h0ZM979.28,881.53s.04.04.02-.03c-.06-.08-.1-.22-.3-.42-2.08-1.99-5.15-2.98-8.31-3.91-4.83-1.34-10.14-2.14-15.47-2.68-57.63-5.13-140.58,11.56-192.45,37.31-4.74,2.49-9.38,5.19-13.35,8.24-2.57,2.04-5.05,4.12-6.2,6.72-.11.26-.09.4-.11.48.02.06.05.03.04-.01.02-.05.01-.08.05-.05.53.55,1.17,1,2.25,1.53,6.54,2.94,14.31,3.48,21.78,3.99,21.55.97,43.57-1.38,65.03-4.39,32.47-4.83,64.9-11.9,96.27-21.3,13.04-4.1,44.39-14.26,50.75-25.48h0Z"/>
    <path class="cls-1" d="M1024.55,948.04c1.63,10.25-10.23,16.54-17.42,20.68-34.38,17.64-74.56,24.99-112.98,24.82-9.61-.47-23.13-.79-31.04-7.17-5.14-4.23-5.03-11.43-.58-16.14,10.73-11.43,39.82-18.58,55.14-22.33,20.36-4.68,40.8-8.07,61.65-10.26,11.38-.84,41.83-4.37,45.23,10.4h0ZM1012.39,950.39c.09.61.47.95.48.92.06.01-.04-.03-.04-.05-.03-.03-.04-.06-.08-.11-3.63-2.29-8.45-2.79-13-3.44-6.44-.75-13.16-.93-19.88-.82-26.91.63-54.05,6.51-79.33,15.55-6.29,2.33-12.47,4.96-18.19,8.02-3.83,2.15-7.88,4.44-10.42,7.59-.15.23-.26.38-.33.6,0,.02-.07.1-.01.06.03.02.27-.46.13-1.09-.04-.65-.39-1.06-.38-1.1-.06-.03.04,0,.05,0,.2.1.32.17.55.27,23.41,7.31,85.56-6.94,110.59-13.99,6.36-1.84,12.65-3.92,18.51-6.48,4.1-1.89,8.36-3.82,11.2-6.89.03-.05.03-.07.06-.09,0-.01.1-.08.05-.03.02.01-.15.5.05,1.09h0Z"/>
    <ellipse class="cls-3" cx="1173.23" cy="314.54" rx="180.15" ry="52.5" transform="translate(611.43 1391.47) rotate(-77.46)"/>
    <ellipse class="cls-3" cx="286.32" cy="569.42" rx="52.5" ry="180.15" transform="translate(-319.32 370.87) rotate(-45.15)"/>
  </g>
  <g>
    <g>
      <path class="cls-1" d="M1418.87,742.32c-24.35,0-46.46-2.96-65.72-8.79-22.59-6.84-41.98-19.52-57.63-37.66-15.14-17.55-25.93-40.67-32.97-70.7-6.31-26.86-9.38-60.02-9.38-101.38s3.27-72.84,10-99.56c7.31-29.07,18.61-52.59,33.58-69.91,15.65-18.12,35.01-30.96,57.53-38.17,19.61-6.27,41.65-9.44,65.54-9.44,17.43,0,34.1.99,49.53,2.93,14.94,1.89,28.67,4.17,40.82,6.77,13.12,2.81,24.1,5.91,33.58,9.46l24.01,9v126.95l-45-9.96c-3.24-.72-9.37-1.87-20.12-3.28-8.93-1.17-19.35-2.14-30.93-2.88-11.7-.75-24.16-1.12-37-1.12-11.87,0-19.05,1.51-23,2.78-1.64.53-2.44,1.12-3.39,2.51-.92,1.34-4.08,6.76-6.57,20.81-2.33,13.17-3.52,31.19-3.52,53.59s1.06,39.46,3.16,52.87c2.17,13.86,5.15,19.65,6.34,21.49,1.04,1.62,1.88,2.29,3.61,2.91,3.72,1.33,10.79,2.9,23.37,2.9,23.44,0,42.61-.46,56.98-1.37,14.25-.9,25.7-1.94,34.01-3.09l42.06-5.81v123.88l-25.3,8.43c-10.23,3.41-21.92,6.35-34.72,8.72-12.26,2.28-25.94,4.06-40.64,5.29-14.45,1.2-30.66,1.81-48.23,1.81Z"/>
      <path class="cls-1" d="M1418.87,705.32c-20.81,0-39.14-2.4-54.99-7.2-15.85-4.8-29.29-13.6-40.34-26.41-11.04-12.8-19.37-31.13-24.97-54.99-5.6-23.85-8.4-54.82-8.4-92.92s2.96-66.99,8.88-90.52c5.92-23.53,14.48-41.78,25.69-54.75,11.2-12.97,24.81-22.01,40.82-27.13,16-5.12,34.1-7.68,54.27-7.68,16,0,30.97.89,44.9,2.64,13.93,1.76,26.49,3.84,37.7,6.24,11.2,2.4,20.65,5.04,28.33,7.92v55.23c-5.76-1.28-13.53-2.56-23.29-3.84-9.77-1.28-20.89-2.32-33.38-3.12-12.49-.79-25.62-1.2-39.38-1.2s-24.9,1.52-34.34,4.56c-9.45,3.05-16.97,8.64-22.57,16.81-5.61,8.16-9.77,19.93-12.49,35.3-2.72,15.37-4.08,35.38-4.08,60.03s1.2,43.22,3.6,58.59c2.4,15.37,6.32,27.3,11.77,35.78,5.44,8.49,12.88,14.41,22.33,17.77,9.44,3.36,21.37,5.04,35.78,5.04,24.33,0,44.1-.48,59.31-1.44,15.2-.96,27.45-2.08,36.74-3.36v54.75c-8.64,2.88-18.57,5.37-29.77,7.44-11.21,2.09-23.53,3.68-36.98,4.8-13.45,1.12-28.5,1.68-45.14,1.68Z"/>
      <path class="cls-1" d="M1658.02,740.4c-23.9,0-44.68-4.28-61.76-12.71-19.67-9.7-34.4-24.8-43.79-44.88-8.16-17.44-12.12-38.2-12.12-63.45v-320.33h145.07v309.77c0,1.71.04,3.18.1,4.44l46.48,6.8v120.36h-73.98Z"/>
      <path class="cls-1" d="M1658.02,703.4c-18.25,0-33.38-2.96-45.38-8.88-12-5.92-20.89-15.04-26.65-27.37-5.76-12.32-8.64-28.25-8.64-47.78v-283.33h71.07v272.77c0,9.6.96,17.21,2.88,22.81,1.92,5.61,4.88,9.69,8.88,12.25,4,2.57,9.04,4.32,15.13,5.28l19.69,2.88v51.38h-36.98Z"/>
      <path class="cls-1" d="M1838.1,741.84c-24.49,0-46.18-2.67-64.48-7.92-21.6-6.2-39.68-17.09-53.74-32.35-13.59-14.74-23.45-33.84-29.29-56.75-5.13-20.15-7.63-43.71-7.63-72.04s2.49-53.83,7.61-74.12c5.91-23.4,15.98-42.58,29.93-57.01,14.15-14.64,32.37-24.97,54.15-30.71,18.22-4.79,39.57-7.22,63.45-7.22s46.13,2.48,64.59,7.58c21.44,5.94,39.43,16.31,53.48,30.83,13.97,14.46,24.03,33.63,29.93,57.01,5.12,20.29,7.61,44.38,7.61,73.64s-2.38,52.64-7.29,72.84c-5.67,23.33-15.46,42.55-29.11,57.13-14,14.96-32.17,25.57-54,31.54-18.6,5.08-39.93,7.55-65.23,7.55ZM1830.96,610.84c1.83.19,4.18.33,7.13.33s5.42-.13,7.28-.32c.32-1.19.67-2.7,1.01-4.56,1.03-5.47,2.25-15.72,2.25-33.52s-1.21-28.32-2.23-33.66c-.34-1.8-.69-3.26-1-4.42-1.88-.18-4.28-.32-7.32-.32s-5.33.14-7.17.34c-.25,1.02-.53,2.28-.8,3.82-.96,5.47-2.09,15.83-2.09,34.23s1.14,28.48,2.1,34.06c.28,1.62.56,2.94.82,4Z"/>
      <path class="cls-1" d="M1838.1,704.84c-21.13,0-39.22-2.16-54.27-6.48-15.05-4.32-27.3-11.6-36.74-21.85-9.45-10.24-16.33-23.85-20.65-40.82-4.32-16.97-6.48-37.94-6.48-62.91,0-26.25,2.16-47.94,6.48-65.07,4.32-17.12,11.2-30.57,20.65-40.34,9.44-9.76,21.77-16.64,36.98-20.65,15.2-4,33.21-6,54.03-6s39.69,2.09,54.75,6.24c15.04,4.17,27.29,11.13,36.74,20.89,9.44,9.77,16.33,23.22,20.65,40.34,4.32,17.13,6.48,38.66,6.48,64.59s-2.09,46.99-6.24,64.11c-4.16,17.13-10.89,30.66-20.17,40.58-9.29,9.93-21.54,16.97-36.74,21.13-15.21,4.16-33.7,6.24-55.47,6.24ZM1838.1,648.17c8.64,0,15.92-.79,21.85-2.4,5.92-1.6,10.72-4.88,14.41-9.84,3.68-4.96,6.48-12.56,8.4-22.81,1.92-10.24,2.88-23.69,2.88-40.34s-.96-30.49-2.88-40.58-4.73-17.6-8.4-22.57c-3.68-4.96-8.49-8.24-14.41-9.84-5.93-1.6-13.21-2.4-21.85-2.4s-15.45.8-21.37,2.4c-5.93,1.61-10.8,4.88-14.65,9.84-3.84,4.97-6.65,12.49-8.4,22.57-1.76,10.08-2.64,23.61-2.64,40.58s.88,30.1,2.64,40.34c1.76,10.25,4.56,17.85,8.4,22.81,3.84,4.97,8.72,8.25,14.65,9.84,5.92,1.61,13.04,2.4,21.37,2.4Z"/>
      <path class="cls-1" d="M2076.77,742.32c-33.38,0-60.6-10.67-80.9-31.73-19.94-20.65-30.05-48.77-30.05-83.55v-219.48h145.07v197.85c.15,0,.3,0,.46,0,4.68,0,9.8-.98,15.21-2.9.21-.07.41-.15.61-.22v-194.73h145.55v331.88h-119.5l-5.9-12.49c-3.09,1.35-6.25,2.65-9.46,3.91-19.3,7.6-39.85,11.45-61.09,11.45Z"/>
      <path class="cls-1" d="M2076.77,705.32c-23.05,0-41.14-6.8-54.27-20.41-13.13-13.6-19.69-32.9-19.69-57.87v-182.48h71.07v161.35c0,14.41,3.44,24.09,10.33,29.05,6.88,4.97,15.92,7.44,27.13,7.44,8.96,0,18.17-1.68,27.61-5.04,9.44-3.36,17.84-7.92,25.21-13.69v-179.12h71.55v257.88h-59.07l-12.49-26.41c-11.53,7.68-24.81,14.49-39.86,20.41-15.05,5.93-30.9,8.88-47.54,8.88Z"/>
      <path class="cls-1" d="M2374.02,742.32c-27.05,0-50.71-6.13-70.33-18.23-20.99-12.92-36.59-33.19-46.35-60.22-8.43-23.3-12.52-52-12.52-87.72s3.41-64.87,10.43-88.38c8.44-28.3,23.62-49.84,45.1-64.01,20.18-13.3,46.58-20.04,78.47-20.04,9.63,0,19.27.67,28.79,1.99v-106.68h145.55v440.41h-120.51l-4.03-8.56c-6.11,2.54-12.38,4.71-18.78,6.49-11.83,3.29-23.88,4.95-35.83,4.95ZM2393.59,610.83c1.23.19,3,.35,5.41.35,3.17,0,6.06-.31,8.62-.92v-78.86c-1.81-.25-3.72-.37-5.74-.37-3.83,0-6.38.34-7.97.67-.18.51-.38,1.13-.6,1.88-1.28,4.54-3.42,15.65-3.42,39.2,0,21.57,2.02,32.13,3.23,36.51.16.59.32,1.1.46,1.54Z"/>
      <path class="cls-1" d="M2374.02,705.32c-20.17,0-37.14-4.24-50.9-12.73-13.77-8.48-24.09-22.25-30.97-41.3-6.89-19.04-10.32-44.1-10.32-75.16s2.96-57.94,8.88-77.8c5.92-19.85,15.92-34.41,30.01-43.7,14.08-9.28,33.45-13.93,58.11-13.93,11.84,0,23.53,1.2,35.06,3.6s21.77,5.21,30.73,8.4v-116.69h71.55v366.41h-60.03l-11.53-24.49c-5.45,5.12-12.09,9.77-19.93,13.93-7.85,4.16-16.09,7.44-24.73,9.84-8.64,2.4-17.29,3.6-25.93,3.6ZM2398.99,648.17c9.6,0,18.32-1.6,26.17-4.8,7.84-3.2,14.32-6.4,19.45-9.6v-129.66c-6.41-2.24-13.13-4.48-20.17-6.72-7.05-2.24-14.57-3.36-22.57-3.36-11.85,0-21.37,2.09-28.57,6.24-7.2,4.16-12.41,11.93-15.61,23.29-3.2,11.37-4.8,27.78-4.8,49.22,0,19.85,1.52,35.3,4.56,46.34,3.04,11.04,7.92,18.65,14.65,22.81,6.72,4.16,15.68,6.24,26.89,6.24Z"/>
      <rect class="cls-1" x="2535.83" y="310.07" width="145.07" height="429.37"/>
      <path class="cls-1" d="M2572.83,702.44v-355.37h71.07v355.37h-71.07Z"/>
      <polygon class="cls-1" points="2894.02 739.44 2871.45 665.01 2805.49 665.01 2783.4 739.44 2632.42 739.44 2767.03 310.07 2911.18 310.07 3045.79 739.44 2894.02 739.44"/>
      <path class="cls-1" d="M2682.79,702.44l111.41-355.37h89.8l111.41,355.37h-73.95l-22.57-74.43h-121.02l-22.09,74.43h-72.99ZM2794.68,564.14h87.4l-43.7-156.07-43.7,156.07Z"/>
    </g>
    <text class="cls-5" transform="translate(1268.56 705.32)"><tspan class="cls-2" x="0" y="0">Cloud</tspan><tspan class="cls-3" x="1273.54" y="0">IA</tspan></text>
  </g>
  <path class="cls-1" d="M2535.96,582.74c-5.75-9.77-8.12-20.36-6.7-31.63.26-2.05-.19-3.78-1.08-5.13l2.4-1.91c8.08-6.41-2-18.85-10.07-12.43-10.95,8.69-21.89,17.39-32.84,26.08-3.77,2.99-4.13,9.95.3,12.67,11.99,7.36,23.97,14.73,35.96,22.09,6.05,3.72,16.5-2.15,12.03-9.74Z"/>
  <path class="cls-1" d="M2552.02,540.74c5.75,9.77,8.12,20.36,6.7,31.63-.26,2.05.19,3.78,1.08,5.13l-2.4,1.91c-8.08,6.41,2,18.85,10.07,12.43,10.95-8.69,21.89-17.39,32.84-26.08,3.77-2.99,4.13-9.95-.3-12.67-11.99-7.36-23.97-14.73-35.96-22.09-6.05-3.72-16.5,2.15-12.03,9.74Z"/>
  <path class="cls-1" d="M551.38,882.14c-8.74-8.31-23.06-11.08-33.82-5.04-5.69,3.2-10.11,8.68-10.41,15.4-.33,7.14,3.65,13.01,8.15,18.14,2.17,2.48,4.92,3.13,7.43,2.62,1.2.41,2.43.67,3.69.79,5.76,2.64,13.43.61,19.17-.93,15.51-4.15,16.49-20.82,5.79-31Z"/>
  <path class="cls-1" d="M573.84,893.4c-4.32,0-8.31,2.5-8.79,7.12-.42,3.95,2.77,8.79,7.12,8.79s8.31-2.5,8.79-7.12c.42-3.95-2.77-8.79-7.12-8.79Z"/>
  <path class="cls-1" d="M499.51,860.69c-4.32,0-8.31,2.5-8.79,7.12-.42,3.95,2.77,8.79,7.12,8.79s8.31-2.5,8.79-7.12c.42-3.95-2.77-8.79-7.12-8.79Z"/>
  <path class="cls-1" d="M456.17,840.76c-8.32-9.51-20.71-11.36-32.66-12.04-10.25-.58-11.98,15.33-1.67,15.91.24.01.48.03.72.04.29,2.11,1.45,4.12,3.16,5.7,4.4,4.06,7.83,9.7,11.52,14.42,3.97,5.07,7.93,10.15,11.9,15.22,4.44,5.68,13.18,2.45,14.17-4.2,1.79-11.98,1.24-25.46-7.15-35.05Z"/>
</svg>