<?xml version="1.0" encoding="UTF-8"?>
<svg id="Capa_2" data-name="Capa 2" xmlns="http://www.w3.org/2000/svg" viewBox="0 0 1102.4 864.24">
  <defs>
    <style>
      .cls-1 {
        fill: #4300df;
      }

      .cls-2 {
        fill: #c5fffd;
      }

      .cls-3 {
        fill: #c89efc;
      }

      .cls-3, .cls-4 {
        stroke: #4300df;
        stroke-linecap: round;
        stroke-linejoin: round;
        stroke-width: 18px;
      }

      .cls-4 {
        fill: none;
      }
    </style>
  </defs>
  <g id="Objs">
    <g>
      <g>
        <path class="cls-3" d="M549.35,102.22v-.04c-1.6.37-3.16.74-4.75,1.11-1.59.36-3.15.7-4.75,1.07v.04C221.87,179.24,100.18,305.92,233.44,648.19c117.82,261.85,305.04,75.05,437.29,40.1,134.27-26.18,384.18,60.36,376.11-226.66-29.22-366.14-178.97-430.56-497.5-359.41Z"/>
        <line class="cls-4" x1="921.67" y1="259.63" x2="1008.83" y2="295.9"/>
        <line class="cls-4" x1="330.08" y1="397.95" x2="192.6" y2="476.08"/>
        <path class="cls-1" d="M589.34,148.5c-192.94,44.25-294.74,108.31-253.4,278.61,41.34,170.31,336.19,82.33,336.19,82.33,0,0,303.72-49.31,266.71-220.61-37.01-171.3-156.55-184.59-349.49-140.33Z"/>
        <path class="cls-2" d="M687.66,368.7c2.95,12.61,19.27,15.73,27.23,5.51,10.23-13.13,24.86-22.95,42.35-26.96,19.42-4.45,38.8-.93,54.73,8.42,11.22,6.59,24.87-3.11,22.8-15.96-.43-2.66-1.01-5.34-1.74-8-10.26-37.48-48.22-61.13-86.38-53.81-41.96,8.04-68.53,49.18-59.06,90.46.03.11.05.23.08.34Z"/>
        <path class="cls-2" d="M448.08,415.06c2.95,12.61,19.27,15.73,27.23,5.51,10.23-13.13,24.86-22.95,42.35-26.96,19.42-4.45,38.8-.93,54.73,8.42,11.22,6.59,24.87-3.11,22.8-15.96-.43-2.66-1.01-5.34-1.74-8-10.26-37.48-48.22-61.13-86.38-53.81-41.96,8.04-68.53,49.18-59.06,90.46.03.11.05.23.08.34Z"/>
        <path class="cls-1" d="M847.14,749.86c2.39,13.71-16.63,23.61-26.39,28.99-53.64,26.6-121.95,39.3-181.63,39.55-13.88-.43-43.44-.91-51.24-14.16-3.26-5.4-1.13-12.45,2.83-16.64,16.63-17.97,63.24-30.01,87.3-36.09,25.95-6.38,162.37-35.08,169.13-1.64h0ZM834.97,752.22s.04.04.02-.03c-.06-.08-.1-.22-.3-.42-2.08-1.99-5.15-2.98-8.31-3.91-4.83-1.34-10.14-2.14-15.47-2.68-57.63-5.13-140.58,11.56-192.45,37.31-4.74,2.49-9.38,5.19-13.35,8.24-2.57,2.04-5.05,4.12-6.2,6.72-.11.26-.09.4-.11.48.02.06.05.03.04-.01.02-.05.01-.08.05-.05.53.55,1.17,1,2.25,1.53,6.54,2.94,14.31,3.48,21.78,3.99,21.55.97,43.57-1.38,65.03-4.39,32.47-4.83,64.9-11.9,96.27-21.3,13.04-4.1,44.39-14.26,50.75-25.48h0Z"/>
        <path class="cls-1" d="M880.25,818.73c1.63,10.25-10.23,16.54-17.42,20.68-34.38,17.64-74.56,24.99-112.98,24.82-9.61-.47-23.13-.79-31.04-7.17-5.14-4.23-5.03-11.43-.58-16.14,10.73-11.43,39.82-18.58,55.14-22.33,20.36-4.68,40.8-8.07,61.65-10.26,11.38-.84,41.83-4.37,45.23,10.4h0ZM868.08,821.08c.09.61.47.95.48.92.06.01-.04-.03-.04-.05-.03-.03-.04-.06-.08-.11-3.63-2.29-8.45-2.79-13-3.44-6.44-.75-13.16-.93-19.88-.82-26.91.63-54.05,6.51-79.33,15.55-6.29,2.33-12.47,4.96-18.19,8.02-3.83,2.15-7.88,4.44-10.42,7.59-.15.23-.26.38-.33.6,0,.02-.07.1-.01.06.03.02.27-.46.13-1.09-.04-.65-.39-1.06-.38-1.1-.06-.03.04,0,.05,0,.2.1.32.17.55.27,23.41,7.31,85.56-6.94,110.59-13.99,6.36-1.84,12.65-3.92,18.51-6.48,4.1-1.89,8.36-3.82,11.2-6.89.03-.05.03-.07.06-.09,0-.01.1-.08.05-.03.02.01-.15.5.05,1.09h0Z"/>
        <ellipse class="cls-3" cx="1028.92" cy="185.23" rx="180.15" ry="52.5" transform="translate(624.68 1149.38) rotate(-77.46)"/>
        <ellipse class="cls-3" cx="142.02" cy="440.11" rx="52.5" ry="180.15" transform="translate(-270.17 230.44) rotate(-45.15)"/>
      </g>
      <path class="cls-1" d="M407.07,752.83c-8.74-8.31-23.06-11.08-33.82-5.04-5.69,3.2-10.11,8.68-10.41,15.4-.33,7.14,3.65,13.01,8.15,18.14,2.17,2.48,4.92,3.13,7.43,2.62,1.2.41,2.43.67,3.69.79,5.76,2.64,13.43.61,19.17-.93,15.51-4.15,16.49-20.82,5.79-31Z"/>
      <path class="cls-1" d="M429.53,764.09c-4.32,0-8.31,2.5-8.79,7.12-.42,3.95,2.77,8.79,7.12,8.79s8.31-2.5,8.79-7.12c.42-3.95-2.77-8.79-7.12-8.79Z"/>
      <path class="cls-1" d="M355.21,731.38c-4.32,0-8.31,2.5-8.79,7.12-.42,3.95,2.77,8.79,7.12,8.79s8.31-2.5,8.79-7.12c.42-3.95-2.77-8.79-7.12-8.79Z"/>
      <path class="cls-1" d="M311.86,711.44c-8.32-9.51-20.71-11.36-32.66-12.04-10.25-.58-11.98,15.33-1.67,15.91.24.01.48.03.72.04.29,2.11,1.45,4.12,3.16,5.7,4.4,4.06,7.83,9.7,11.52,14.42,3.97,5.07,7.93,10.15,11.9,15.22,4.44,5.68,13.18,2.45,14.17-4.2,1.79-11.98,1.24-25.46-7.15-35.05Z"/>
    </g>
  </g>
</svg>